<?xml version="1.0" encoding="UTF-8"?>
<svg id="Layer_1" data-name="Layer 1" xmlns="http://www.w3.org/2000/svg" viewBox="0 0 64 64">
  <defs>
    <style>
      .cls-1 {
        fill: #87cefa;
      }
    </style>
  </defs>
  <path class="cls-1" d="M21.25,40.67l-7.92,8c-.88.8-2.05,1.33-3.33,1.33-2.58,0-4.67-2.09-4.67-4.67v-.67l2.67-19.68c.56-6.21,5.76-10.98,12-10.99h24c6.29,0,11.44,4.83,12,10.99l2.67,19.68v.67c0,2.58-2.09,4.67-4.67,4.67-1.28,0-2.45-.53-3.33-1.33l-7.92-8h-21.49ZM18.67,19.33v5.33h-5.33v2.67h5.33v5.33h2.67v-5.33h5.33v-2.67h-5.33v-5.33h-2.67ZM44,19.33c-1.1,0-2,.9-2,2s.9,2,2,2,2-.9,2-2-.9-2-2-2M39.33,24c-1.1,0-2,.9-2,2s.9,2,2,2,2-.9,2-2-.9-2-2-2M48.67,24c-1.1,0-2,.9-2,2s.9,2,2,2,2-.9,2-2-.9-2-2-2M44,28.67c-1.1,0-2,.9-2,2s.9,2,2,2,2-.9,2-2-.9-2-2-2"/>
</svg>