<?xml version="1.0" encoding="UTF-8"?>
<svg id="Layer_1" data-name="Layer 1" xmlns="http://www.w3.org/2000/svg" viewBox="0 0 64 64">
  <defs>
    <style>
      .cls-1 {
        fill: #87cefa;
      }
    </style>
  </defs>
  <path class="cls-1" d="M55.12,42.03h0c-1.24-1.15-2.85-1.42-4.02-1.62h-.09c-1.13-.2-1.31-.33-1.82-.79-.31-.27-.67-.71-.67-1.24s.36-.97.67-1.24l3.78-3.36c3.24-2.86,5.03-6.71,5.03-10.82s-1.78-7.96-5.03-10.82c-4.49-3.95-10.62-6.12-17.3-6.12-7.71,0-15.43,2.92-21.18,8.01-5.48,4.85-8.5,11.34-8.5,18.28s3.02,13.43,8.5,18.28c2.72,2.4,5.94,4.27,9.56,5.55,3.49,1.22,7.16,1.86,10.86,1.88h.23c7.62,0,14.89-2.57,19.92-7.05,1.21-1.07,1.89-2.6,1.92-4.32.03-1.77-.67-3.49-1.87-4.6M14,26c0-2.21,1.79-4,4-4s4,1.79,4,4-1.79,4-4,4-4-1.79-4-4M19,42.88c-2.21,0-4-1.79-4-4s1.79-4,4-4,4,1.79,4,4-1.79,4-4,4M24,18c0-2.21,1.79-4,4-4s4,1.79,4,4-1.79,4-4,4-4-1.79-4-4M32,51.88c-3.31,0-6-2.69-6-6s2.69-6,6-6,6,2.69,6,6-2.69,6-6,6M41,22c-2.21,0-4-1.79-4-4s1.79-4,4-4,4,1.79,4,4-1.79,4-4,4"/>
</svg>